:FULLY-SPECIFIED
:FORCE-ALL-JOINTS-BE-3DOF
:DEGREES
272
root 8.31683 16.1465 -25.18 20.1373 68.8149 17.7657
lfemur -25.0622 8.27357 -22.4376
ltibia 42.0016 -0 0
lfoot -7.29781 -21.2751 -0.105449
ltoes 62.6625 -0 0
rfemur -51.0187 -4.8869 12.9873
rtibia 80.563 -0 0
rfoot 8.35822 -1.96141 -0.112893
rtoes 0.826346 -0 0
lowerback 6.24761 -4.42066 -2.54933
upperback 1.49055 -6.04971 -1.65368
thorax -1.87229 -2.98152 0.191972
lowerneck -5.44712 -10.9975 -4.55535
upperneck 0.86294 -14.5163 5.14306
head 1.97884 -7.17313 1.83671
lclavicle 3.07285e-14 1.19908e-14 0
lhumerus -45.2413 -35.5217 107.858
lradius 59.3333 -0 0
lwrist 20.2849 0 0
lhand 18.5517 14.8201 0.0275344
lfingers 7.12502 -0 0
lthumb 43.1717 38.9071 -0.00401497
rclavicle 3.07285e-14 1.19908e-14 0
rhumerus -53.8083 3.30135 -93.9983
rradius 45.5865 -0 0
rwrist 25.3708 0 0
rhand -24.0376 3.01366 -0.0285151
rfingers 7.12502 -0 0
rthumb 2.44083 -26.9417 -0.0265512
273
root 8.37817 16.1444 -25.1527 21.5021 69.8368 19.528
lfemur -24.5229 7.61526 -22.7629
ltibia 41.9173 -0 0
lfoot -6.82271 -21.9409 -0.0554822
ltoes 63.1574 -0 0
rfemur -52.8457 -5.16037 13.7392
rtibia 81.5852 -0 0
rfoot 7.86461 -1.27555 -0.0593979
rtoes 1.10115 -0 0
lowerback 6.49272 -4.51665 -2.63232
upperback 1.61467 -6.18676 -1.89255
thorax -1.8923 -3.05231 0.0139652
lowerneck -5.21387 -11.1593 -4.69741
upperneck 0.76685 -14.7394 5.38301
head 1.94286 -7.28303 1.93335
lclavicle 3.07285e-14 1.19908e-14 0
lhumerus -44.9135 -35.5824 107.253
lradius 59.225 -0 0
lwrist 20.2995 0 0
lhand 19.1518 14.9581 0.0144893
lfingers 7.12502 -0 0
lthumb 43.7378 38.8858 -0.00211283
rclavicle 3.07285e-14 1.19908e-14 0
rhumerus -54.518 3.64779 -95.5259
rradius 45.8571 -0 0
rwrist 24.4049 0 0
rhand -24.3909 3.25668 -0.0150067
rfingers 7.12502 -0 0
rthumb 2.09968 -26.7073 -0.0139732
274
root 8.4395 16.1423 -25.1255 23.0313 70.8426 21.4534
lfemur -23.9806 6.96001 -23.0939
ltibia 41.8329 0 0
lfoot -6.34822 -22.6063 0
ltoes 63.6522 0 0
rfemur -54.677 -5.40979 14.4999
rtibia 82.6074 0 0
rfoot 7.37167 -0.590177 0
rtoes 1.37596 0 0
lowerback 6.738 -4.61229 -2.71573
upperback 1.7394 -6.3233 -2.13178
thorax -1.91208 -3.12316 -0.164029
lowerneck -4.98008 -11.3206 -4.84023
upperneck 0.669695 -14.9622 5.62359
head 1.90668 -7.39287 2.03008
lclavicle 3.07285e-14 1.19908e-14 0
lhumerus -44.5846 -35.6402 106.647
lradius 59.1166 0 0
lwrist 20.3141 0 0
lhand 19.7519 15.0959 0
lfingers 7.12502 0 0
lthumb 44.3039 38.8645 0
rclavicle 3.07285e-14 1.19908e-14 0
rhumerus -55.2369 3.9752 -97.0583
rradius 46.1277 0 0
rwrist 23.439 0 0
rhand -24.7442 3.49961 0
rfingers 7.12502 0 0
rthumb 1.75858 -746.473 0
275
root 8.49337 16.1004 -25.0747 23.2755 71.0941 22.1452
lfemur -23.537 7.17729 -22.982
ltibia 42.4727 -0 0
lfoot -6.71014 -23.1122 0.03208
ltoes 63.3548 -0 0
rfemur -53.9744 -5.31688 15.0254
rtibia 81.1089 -0 0
rfoot 7.00251 -1.44149 0.0553371
rtoes 3.57335 -0 0
lowerback 6.74763 -4.62572 -2.95178
upperback 1.86695 -6.34532 -2.21979
thorax -1.76699 -3.13578 -0.132131
lowerneck -4.87256 -11.3633 -4.91899
upperneck 0.795192 -15.0287 5.76635
head 1.95631 -7.42569 2.08742
lclavicle -9.38761e-14 -2.78299e-15 0
lhumerus -44.4147 -35.8341 106.383
lradius 59.1891 -0 0
lwrist 20.282 0 0
lhand 19.7958 15.1279 0.000245403
lfingers 7.12502 -0 0
lthumb 44.3448 38.8807 0.000115303
rclavicle -9.38761e-14 -2.78299e-15 0
rhumerus -55.9688 5.41151 -97.2588
rradius 47.5633 -0 0
rwrist 23.1392 0 0
rhand -24.8372 2.81388 0.0111825
rfingers 7.12502 -0 0
rthumb 1.66878 -27.1591 0.0108058
276
root 8.54725 16.0584 -25.0238 23.5324 71.3446 22.8493
lfemur -23.0927 7.39371 -22.8684
ltibia 43.1125 -0 0
lfoot -7.07233 -23.6182 0.0609629
ltoes 63.0574 -0 0
rfemur -53.2711 -5.2304 15.5519
rtibia 79.6105 -0 0
rfoot 6.63257 -2.29314 0.105182
rtoes 5.77074 -0 0
lowerback 6.75732 -4.6391 -3.18784
upperback 1.99453 -6.36714 -2.30786
thorax -1.6219 -3.14847 -0.100264
lowerneck -4.76497 -11.4058 -4.99785
upperneck 0.920556 -15.0956 5.909
head 2.00592 -7.45855 2.14474
lclavicle -9.38761e-14 -2.78299e-15 0
lhumerus -44.2433 -36.0274 106.118
lradius 59.2617 -0 0
lwrist 20.2499 0 0
lhand 19.8397 15.16 0.000466267
lfingers 7.12502 -0 0
lthumb 44.3857 38.8968 0.000219076
rclavicle -9.38761e-14 -2.78299e-15 0
rhumerus -56.7077 6.84515 -97.4783
rradius 48.999 -0 0
rwrist 22.8394 0 0
rhand -24.9303 2.12814 0.0212515
rfingers 7.12502 -0 0
rthumb 1.57885 -27.8452 0.0205356
277
root 8.60112 16.0165 -24.973 23.8023 71.594 23.5662
lfemur -22.6477 7.60924 -22.7531
ltibia 43.7523 -0 0
lfoot -7.43476 -24.1244 0.0866451
ltoes 62.7601 -0 0
rfemur -52.5672 -5.15037 16.0794
rtibia 78.112 -0 0
rfoot 6.26192 -3.1451 0.149522
rtoes 7.96814 -0 0
lowerback 6.76706 -4.65245 -3.42391
upperback 2.12215 -6.38877 -2.39598
thorax -1.47682 -3.16125 -0.06843
lowerneck -4.6573 -11.4482 -5.0768
upperneck 1.04579 -15.1627 6.05154
head 2.05549 -7.49147 2.20204
lclavicle -9.38761e-14 -2.78299e-15 0
lhumerus -44.0704 -36.22 105.852
lradius 59.3342 -0 0
lwrist 20.2178 0 0
lhand 19.8836 15.192 0.00066259
lfingers 7.12502 -0 0
lthumb 44.4265 38.913 0.000311319
rclavicle -9.38761e-14 -2.78299e-15 0
rhumerus -57.4547 8.27583 -97.7172
rradius 50.4346 -0 0
rwrist 22.5396 0 0
rhand -25.0235 1.44237 0.0302054
rfingers 7.12502 -0 0
rthumb 1.48882 -28.5313 0.0291879
278
root 8.655 15.9745 -24.9221 24.0858 71.8424 24.2964
lfemur -22.2021 7.82388 -22.636
ltibia 44.3921 -0 0
lfoot -7.7974 -24.6308 0.109124
ltoes 62.4627 -0 0
rfemur -51.8626 -5.0768 16.6077
rtibia 76.6136 -0 0
rfoot 5.89066 -3.99732 0.188345
rtoes 10.1655 -0 0
lowerback 6.77685 -4.66576 -3.65998
upperback 2.24982 -6.4102 -2.48415
thorax -1.33174 -3.17411 -0.0366276
lowerneck -4.54956 -11.4904 -5.15585
upperneck 1.17088 -15.2301 6.19398
head 2.10504 -7.52443 2.2593
lclavicle -9.38761e-14 -2.78299e-15 0
lhumerus -43.8959 -36.4119 105.584
lradius 59.4068 -0 0
lwrist 20.1856 0 0
lhand 19.9275 15.224 0.000834374
lfingers 7.12502 -0 0
lthumb 44.4674 38.9291 0.000392031
rclavicle -9.38761e-14 -2.78299e-15 0
rhumerus -58.2106 9.70328 -97.9759
rradius 51.8702 -0 0
rwrist 22.2398 0 0
rhand -25.1168 0.7566 0.0380429
rfingers 7.12502 -0 0
rthumb 1.39869 -29.2174 0.0367613
279
root 8.70887 15.9326 -24.8713 24.3834 72.0896 25.0403
lfemur -21.7558 8.03762 -22.5171
ltibia 45.0319 -0 0
lfoot -8.16023 -25.1373 0.128396
ltoes 62.1653 -0 0
rfemur -51.1574 -5.00971 17.1369
rtibia 75.1151 -0 0
rfoot 5.51886 -4.84979 0.221641
rtoes 12.3629 -0 0
lowerback 6.78671 -4.67902 -3.89606
upperback 2.37752 -6.43144 -2.57237
thorax -1.18667 -3.18705 -0.00485757
lowerneck -4.44174 -11.5325 -5.23499
upperneck 1.29585 -15.2979 6.33631
head 2.15455 -7.55744 2.31655
lclavicle -9.38761e-14 -2.78299e-15 0
lhumerus -43.7199 -36.6032 105.315
lradius 59.4793 -0 0
lwrist 20.1535 0 0
lhand 19.9714 15.256 0.000981617
lfingers 7.12502 -0 0
lthumb 44.5083 38.9453 0.000461214
rclavicle -9.38761e-14 -2.78299e-15 0
rhumerus -58.9766 11.1272 -98.255
rradius 53.3059 -0 0
rwrist 21.94 0 0
rhand -25.2102 0.0708135 0.0447629
rfingers 7.12502 -0 0
rthumb 1.30847 -29.9036 0.0432549
280
root 8.76275 15.8906 -24.8204 24.6955 72.3355 25.7985
lfemur -21.3089 8.25042 -22.3966
ltibia 45.6718 -0 0
lfoot -8.52321 -25.644 0.14446
ltoes 61.8679 -0 0
rfemur -50.4517 -4.94911 17.6668
rtibia 73.6167 -0 0
rfoot 5.1466 -5.70245 0.249401
rtoes 14.5603 -0 0
lowerback 6.79661 -4.69225 -4.13215
upperback 2.50526 -6.45248 -2.66064
thorax -1.04161 -3.20007 0.02688
lowerneck -4.33384 -11.5744 -5.31421
upperneck 1.42068 -15.3659 6.47853
head 2.20404 -7.59051 2.37377
lclavicle -9.38761e-14 -2.78299e-15 0
lhumerus -43.5423 -36.7939 105.045
lradius 59.5519 -0 0
lwrist 20.1214 0 0
lhand 20.0153 15.2881 0.00110432
lfingers 7.12502 -0 0
lthumb 44.5492 38.9615 0.000518865
rclavicle -9.38761e-14 -2.78299e-15 0
rhumerus -59.7536 12.5473 -98.555
rradius 54.7415 -0 0
rwrist 21.6401 0 0
rhand -25.3037 -0.614983 0.0503644
rfingers 7.12502 -0 0
rthumb 1.21819 -30.5897 0.0486677
